<?xml version="1.0" encoding="utf-8"?>
<!-- Generator: Adobe Illustrator 15.1.0, SVG Export Plug-In  -->
<!DOCTYPE svg PUBLIC "-//W3C//DTD SVG 1.1//EN" "http://www.w3.org/Graphics/SVG/1.1/DTD/svg11.dtd" [
	<!ENTITY ns_flows "http://ns.adobe.com/Flows/1.0/">
]>
<svg version="1.1"
	 xmlns="http://www.w3.org/2000/svg" xmlns:xlink="http://www.w3.org/1999/xlink" xmlns:a="http://ns.adobe.com/AdobeSVGViewerExtensions/3.0/"
	 x="0px" y="0px" width="35px" height="35px" viewBox="-0.369 -0.138 35 35" enable-background="new -0.369 -0.138 35 35"
	 xml:space="preserve">
<defs>
</defs>
<g>
	<defs>
		<rect id="SVGID_1_" x="0" width="34.418" height="34.418"/>
	</defs>
	<clipPath id="SVGID_2_">
		<use xlink:href="#SVGID_1_"  overflow="visible"/>
	</clipPath>
	<path clip-path="url(#SVGID_2_)" fill="#006944" d="M17.237,0C7.732-0.016,0.015,7.679,0,17.181
		c-0.014,9.504,7.678,17.223,17.182,17.237s17.223-7.678,17.236-17.183C34.434,7.732,26.741,0.015,17.237,0"/>
</g>
<rect x="4.925" y="23.4" transform="matrix(-1 -0.0015 0.0015 -1 34.4486 48.2144)" fill="#F7F7F8" width="24.635" height="1.388"/>
<rect x="8.754" y="10.797" fill="#F7F7F8" width="2.973" height="11.825"/>
<rect x="15.709" y="10.94" fill="#F7F7F8" width="2.978" height="12.327"/>
<rect x="22.782" y="10.952" fill="#F7F7F8" width="2.977" height="12.626"/>
<rect x="7.797" y="21.907" transform="matrix(-1 -0.0018 0.0018 -1 20.5275 45.6832)" fill="#F7F7F8" width="4.974" height="1.852"/>
<rect x="14.762" y="21.852" transform="matrix(-1 -0.0014 0.0014 -1 34.4628 45.5784)" fill="#F7F7F8" width="4.97" height="1.851"/>
<rect x="21.829" y="21.928" transform="matrix(-1 -0.0018 0.0018 -1 48.5875 45.7519)" fill="#F7F7F8" width="4.971" height="1.853"/>
<rect x="21.735" y="11.259" transform="matrix(-1 -0.0015 0.0015 -1 48.5307 24.8752)" fill="#F7F7F8" width="5.08" height="2.32"/>
<rect x="14.665" y="11.196" transform="matrix(-1 -0.0013 0.0013 -1 34.3965 24.7321)" fill="#F7F7F8" width="5.084" height="2.317"/>
<rect x="7.704" y="11.07" transform="matrix(-1 -0.0015 0.0015 -1 20.4724 24.4776)" fill="#F7F7F8" width="5.083" height="2.321"/>
<rect x="5.829" y="10.92" transform="matrix(-1 -0.0015 0.0015 -1 34.3974 22.8576)" fill="#F7F7F8" width="22.758" height="0.991"/>
<polygon fill="#F7F7F8" points="5.002,10.125 5.001,11.118 6.823,11.178 17.272,5.45 27.372,11.152 29.196,11.155 29.198,10.163 
	17.274,3.404 "/>
<rect x="6.77" y="10.09" transform="matrix(-1 -0.0015 0.0015 -1 34.6238 21.4182)" fill="#F7F7F8" width="21.1" height="1.213"/>
<polygon fill="#F7F7F8" points="11.613,9.413 22.875,9.431 17.323,6.318 "/>
<rect x="4.868" y="25.402" transform="matrix(-1 -0.0015 0.0015 -1 34.3361 52.2189)" fill="#F7F7F8" width="24.64" height="1.389"/>
</svg>
