<?xml version="1.0" encoding="utf-8"?>
<!-- Generator: Adobe Illustrator 15.1.0, SVG Export Plug-In  -->
<!DOCTYPE svg PUBLIC "-//W3C//DTD SVG 1.1//EN" "http://www.w3.org/Graphics/SVG/1.1/DTD/svg11.dtd" [
	<!ENTITY ns_flows "http://ns.adobe.com/Flows/1.0/">
]>
<svg version="1.1"
	 xmlns="http://www.w3.org/2000/svg" xmlns:xlink="http://www.w3.org/1999/xlink" xmlns:a="http://ns.adobe.com/AdobeSVGViewerExtensions/3.0/"
	 x="0px" y="0px" width="35px" height="35px" viewBox="-0.691 -0.554 35 35" enable-background="new -0.691 -0.554 35 35"
	 xml:space="preserve">
<defs>
</defs>
<g>
	<defs>
		<rect id="SVGID_2_" width="34.418" height="34.418"/>
	</defs>
	<clipPath id="SVGID_4_">
		<use xlink:href="#SVGID_2_"  overflow="visible"/>
	</clipPath>
	<path clip-path="url(#SVGID_4_)" fill="#E55C3C" d="M17.209,34.418c9.504,0,17.211-7.704,17.211-17.209
		c0-9.504-7.707-17.208-17.211-17.208C7.707,0.001,0,7.705,0,17.209C0,26.714,7.707,34.418,17.209,34.418"/>
	<path clip-path="url(#SVGID_4_)" fill="#FFFFFF" d="M8.201,17.032L7.068,22.35c0,0,5.139,3.864,10.426,3.864
		c5.281,0,10.334-3.611,10.334-3.611l-0.975-5.385L8.201,17.032z"/>
</g>
<polygon fill="#FFFFFF" points="1.514,13.644 16.953,5.762 33.314,13.638 17.223,23.268 "/>
<path fill="#E55C3C" d="M2.41,13.68l14.549-7.428l15.432,7.428l-15.166,9.074L2.41,13.68z M16.561,5.47L2.012,12.897l-1.395,0.711
	l1.336,0.818l14.814,9.077l0.451,0.278l0.457-0.273l15.164-9.077l1.4-0.836l-1.469-0.709L17.34,5.462l-0.393-0.189L16.561,5.47z"/>
<g>
	<defs>
		<rect id="SVGID_1_" width="34.418" height="34.418"/>
	</defs>
	<clipPath id="SVGID_6_">
		<use xlink:href="#SVGID_1_"  overflow="visible"/>
	</clipPath>
	<path clip-path="url(#SVGID_6_)" fill="#FFFFFF" d="M5.33,20.561c0.189-0.211,0.311-0.479,0.311-0.785
		c0-0.656-0.529-1.19-1.188-1.19s-1.189,0.534-1.189,1.19c0,0.259,0.1,0.484,0.24,0.68c-0.055,0.185-0.111,0.408-0.178,0.708
		c-0.285,1.354,0,2.143,0,2.143h0.502h1.373h0.504C5.705,23.306,5.631,21.527,5.33,20.561"/>
	<path clip-path="url(#SVGID_6_)" fill="none" stroke="#FFFFFF" stroke-width="0.9" d="M16.691,13.175
		c-0.762,0.448-6.918,0.267-11.707,2.128c-1.086,0.423-0.678,3.008-0.678,4.11"/>
	<path clip-path="url(#SVGID_6_)" fill="#E55C3C" d="M19.221,12.907c0,0.587-0.775,1.064-1.73,1.064s-1.73-0.478-1.73-1.064
		c0-0.589,0.775-1.066,1.73-1.066S19.221,12.318,19.221,12.907"/>
</g>
</svg>
