<?xml version="1.0" encoding="UTF-8"?>
<!DOCTYPE svg PUBLIC "-//W3C//DTD SVG 1.1//EN" "http://www.w3.org/Graphics/SVG/1.1/DTD/svg11.dtd">
<!-- Creator: CorelDRAW X7 -->
<svg xmlns="http://www.w3.org/2000/svg" xml:space="preserve" width="9.0149mm" height="9.0151mm" version="1.1" shape-rendering="geometricPrecision" text-rendering="geometricPrecision" image-rendering="optimizeQuality" fill-rule="evenodd" clip-rule="evenodd"
viewBox="0 0 910 910"
 xmlns:xlink="http://www.w3.org/1999/xlink">
 <g id="Layer_x0020_1">
  <metadata id="CorelCorpID_0Corel-Layer"/>
  <path fill="#223E88" d="M455 874c-112,0 -217,-44 -296,-123 -79,-79 -122,-184 -122,-296 0,-111 43,-217 122,-296 79,-79 185,-122 296,-122 112,0 217,43 296,122 79,80 123,185 123,296 0,112 -44,217 -123,296 -79,79 -184,123 -296,123z"/>
  <g>
   <path fill="#009FC7" d="M455 74c102,0 198,39 270,111 72,73 112,168 112,270 0,102 -40,198 -112,270 -72,72 -168,112 -270,112 -102,0 -198,-40 -270,-112 -72,-72 -111,-168 -111,-270 0,-102 39,-198 111,-270 72,-72 168,-111 270,-111l0 0zm0 -74c-122,0 -236,47 -322,133 -86,86 -133,201 -133,322 0,122 47,236 133,322 89,89 206,133 322,133 117,0 233,-44 322,-133 86,-86 133,-200 133,-322 0,-121 -47,-236 -133,-322 -86,-86 -200,-133 -322,-133z"/>
  </g>
  <path fill="white" d="M416 837l0 -87c-52,-3 -103,-21 -131,-40l23 -129c34,21 80,41 132,41 38,0 64,-13 64,-43 0,-29 -22,-47 -77,-68 -81,-33 -139,-81 -139,-175 0,-85 47,-153 132,-174l0 -87 84 0 0 79c52,2 87,15 114,30l-24 125c-20,-10 -57,-32 -113,-32 -44,0 -57,20 -57,40 0,24 25,41 88,68 94,40 128,93 128,178 0,87 -49,158 -139,179l0 95 -85 0 0 0z"/>
  <line fill="none" stroke="#009FC7" stroke-width="80.1598" x1="726" y1="165" x2="145" y2= "746" />
 </g>
</svg>
