<?xml version="1.0" encoding="utf-8"?>
<!-- Generator: Adobe Illustrator 15.1.0, SVG Export Plug-In  -->
<!DOCTYPE svg PUBLIC "-//W3C//DTD SVG 1.1//EN" "http://www.w3.org/Graphics/SVG/1.1/DTD/svg11.dtd" [
	<!ENTITY ns_flows "http://ns.adobe.com/Flows/1.0/">
]>
<svg version="1.1"
	 xmlns="http://www.w3.org/2000/svg" xmlns:xlink="http://www.w3.org/1999/xlink" xmlns:a="http://ns.adobe.com/AdobeSVGViewerExtensions/3.0/"
	 x="0px" y="0px" width="20px" height="20px" viewBox="0 -3.484 20 20" enable-background="new 0 -3.484 20 20"
	 xml:space="preserve">
<defs>
</defs>
<path fill-rule="evenodd" clip-rule="evenodd" fill="#333333" d="M15.212,1.46c0.289-0.153,0.612-0.177,0.933-0.136
	c0.333,0.042,0.663,0.126,0.97,0.266c0.156,0.07,0.305,0.154,0.446,0.251c0.277,0.19,0.54,0.449,0.746,0.714
	c0.054,0.067,0.13,0.132,0.135,0.218c-0.043,0.056-0.123,0.086-0.185,0.118c-0.173,0.091-0.379,0.193-0.572,0.286
	c-0.092,0.124-0.117,0.316,0.084,0.37c0.25,0.066,0.482-0.065,0.741-0.084c0.341-0.024,0.575,0.006,0.874,0.168
	c0.277,0.15,0.365,0.27,0.589,0.487c0.213,0.209-0.917,0.89-0.892,0.96c0.079,0.219-0.03,0.31-0.05,0.538
	c-0.102,0.092-0.212,0.171-0.353,0.235c-0.053,0.024-0.788,0.176-0.774,0.135c-0.08,0.238,0.026,0.593-0.134,0.724
	c-0.543,0.175-1.008-0.123-1.396-0.303c0.009,0.004-0.232,0.171-0.252,0.185c-0.097,0.063-0.192,0.216-0.353,0.118
	C15.738,6.692,15.73,6.669,15.7,6.643c-0.147-0.126-0.27-0.321-0.32-0.556c-0.141,0.042-0.331,0.044-0.521,0.017
	c-0.222-0.029-0.317-0.094-0.488-0.05c-0.212,0.056-0.483,0.15-0.623,0.27c-0.077,0.065-0.213,0.221-0.235,0.336
	c-0.035,0.183,0.048,0.331,0.017,0.455c-0.008,0.033-0.045,0.078-0.067,0.117c-0.054,0.096-0.083,0.126-0.185,0.202
	c-0.451,0.019-0.907,0.051-1.345,0.164c-0.2,0.052-0.398,0.121-0.58,0.221c-0.163,0.089-0.467,0.313-0.546,0.482
	c-0.084,0.182-0.008,0.405-0.019,0.597c-0.003,0.064-0.039,0.141-0.05,0.218c-0.025,0.169-0.025,0.262-0.084,0.388
	c-0.117,0.247-0.234,0.501-0.37,0.757c-0.023,0.042-0.078,0.107-0.084,0.151c-0.126,0.862,0,1.83,0.101,2.759
	c-0.415,0.04-0.903,0.006-1.346,0.018c0.006-0.634-0.017-1.345-0.017-2.104c0-0.155-0.034-0.313-0.034-0.471
	c0-0.271,0.005-0.516-0.034-0.758C8.834,9.641,8.758,9.438,8.701,9.233C8.526,8.604,8.177,8.076,7.944,7.5
	C7.812,7.458,7.705,7.387,7.573,7.366C7.337,7.327,7.145,7.273,6.902,7.306c-0.21,0.026-0.427,0.108-0.641,0.077
	c-0.138-0.02-0.354-0.129-0.467-0.214C5.715,7.109,5.24,6.708,5.151,6.777C4.84,7.016,4.573,7.299,4.394,7.669
	c-0.208,0.03-0.406-0.035-0.606-0.017C3.624,7.667,3.475,7.809,3.317,7.854C3.222,7.881,3.086,7.89,2.998,7.888
	C2.79,7.883,2.586,7.797,2.493,7.585C2.498,7.438,2.468,7.229,2.51,7.063c0.009-0.037,0.005-0.122,0.067-0.102
	c-0.123-0.127-0.32,0.03-0.504,0c-0.11-0.115-0.003-0.301,0.017-0.438C2.292,6.128,2.604,5.84,3.014,5.649
	C2.709,5.658,2.398,5.695,2.072,5.751C1.926,5.775,1.797,5.815,1.651,5.834C1.339,5.878,0.844,5.961,0.524,5.902
	c-0.133-0.024-0.236-0.124-0.37-0.169C0.081,5.553-0.048,5.418,0.019,5.195c0.029-0.095,0.122-0.244,0.185-0.353
	c0.07-0.12,0.148-0.194,0.252-0.287c-0.133-0.106-0.4-0.11-0.438-0.285C-0.05,3.936,0.763,3.466,1.012,3.362
	c0.39-0.163,0.877-0.183,1.279-0.018C2.504,3.222,2.675,3.057,2.896,2.94C2.699,2.822,2.568,2.693,2.795,2.487
	c0.091-0.083,0.196-0.151,0.302-0.212C3.32,2.148,3.592,2.021,3.839,1.948c0.215-0.064,0.485-0.125,0.707-0.151
	c0.384-0.046,0.817-0.01,1.194,0.067c0.313,0.064,0.584,0.133,0.824,0.253c0.021,0.01,0.024,0.037,0.051,0.05
	C6.669,2.193,6.74,2.213,6.8,2.252c0.049-0.044,0.094-0.109,0.134-0.169c0.01-0.016,0.004-0.05,0.017-0.067
	c0-0.001,0.027,0.016,0.05-0.017c0.037-0.053,0.07-0.112,0.118-0.169c0.056-0.065,0.123-0.133,0.185-0.201
	C7.474,1.444,7.648,1.255,7.85,1.104c0.218-0.162,0.456-0.294,0.694-0.424c0.268-0.147,0.49-0.326,0.789-0.407
	c0.325-0.089,0.652-0.169,0.984-0.227c0.14-0.024,0.304-0.021,0.488-0.033c0.33-0.022,0.645-0.026,0.959,0.067
	c0.118,0.035,0.257,0.045,0.37,0.084c0.085,0.029,0.184,0.082,0.269,0.117c0.259,0.108,0.518,0.25,0.74,0.404
	c0.287-0.023,0.576,0.006,0.854,0.079c0.33,0.087,0.538,0.191,0.812,0.358C14.953,1.212,15.126,1.306,15.212,1.46z M12.604,2.335
	c-0.173,0.005-0.347,0.039-0.512,0.09c-0.076,0.022-0.15,0.098-0.228,0.106c-0.131,0.014-0.081-0.049-0.186-0.078
	c-0.387-0.106-0.61-0.133-0.992-0.033c-0.213,0.055-0.325,0.079-0.505,0.202c-0.143,0.097-0.267,0.157-0.336,0.285
	C9.569,2.921,9.259,3.035,9.054,3.093c-0.281,0.078-0.592,0.14-0.74,0.37c0.083,0.023,0.157,0.056,0.168,0.15
	C8.286,3.811,8.058,3.976,7.978,4.287C8.166,4.222,8.34,4.069,8.566,4.001c0.154-0.047,0.301-0.082,0.455-0.135
	c0.348-0.119,0.745-0.166,1.11-0.186c0.42-0.021,0.872,0.017,1.295-0.05c-0.064-0.146,0.068-0.242,0.168-0.32
	c0.203-0.155,0.671-0.132,0.909-0.117c0.333,0.02,0.662,0.073,0.986,0.149c0.139,0.032,0.279,0.065,0.415,0.108
	c0.18,0.057,0.549,0.136,0.702,0.264c-0.094-0.079-0.083-0.243-0.16-0.34c-0.08-0.097-0.231-0.165-0.337-0.226
	c-0.041-0.023-0.539-0.271-0.529-0.292c0.062-0.141,0.22-0.184,0.353-0.253C13.661,2.283,13.054,2.323,12.604,2.335z M6.929,3.857
	C6.902,3.843,6.882,3.832,6.871,3.828C6.71,3.771,6.346,3.76,6.194,3.833C5.958,3.945,5.612,4.036,5.588,4.304
	C5.637,4.345,5.737,4.335,5.74,4.421c-0.29,0.173-0.546,0.425-0.724,0.69C4.971,5.18,4.907,5.322,4.966,5.431
	c0.107-0.009,0.195-0.08,0.286-0.135c0.205-0.122,0.409-0.203,0.639-0.303c0.224-0.097,0.427-0.2,0.724-0.218
	c0.107-0.358,0.333-0.6,0.656-0.74C7.245,4.048,7.038,3.919,6.929,3.857z M12.856,6.104c0.071-0.03,0.098-0.105,0.168-0.15
	c0.246-0.157,0.646-0.189,0.908-0.27c-0.081-0.065-0.139-0.067-0.269-0.101c-0.17-0.045-0.402-0.073-0.605-0.034
	c-0.091,0.018-0.184,0.066-0.278,0.068c-0.076,0.002-0.369-0.019-0.396-0.102c0.011-0.146,0.156-0.159,0.152-0.32
	c-0.196-0.163-0.403,0.02-0.522,0.101c-0.169,0.116-0.352,0.266-0.488,0.37c-0.181,0.045-0.382,0.116-0.589,0.085
	c0.204,0.396,0.783,0.417,1.195,0.605c0.063,0.134,0.125,0.237,0.151,0.37c0.15,0.005,0.242-0.05,0.404-0.033
	C12.713,6.455,12.795,6.329,12.856,6.104z M11.157,6.626c-0.136-0.061-0.244-0.126-0.37-0.185c-0.149-0.192-0.328-0.39-0.353-0.657
	c-0.022-0.001-0.024-0.021-0.051-0.017C9.862,5.937,9.485,6.249,9.223,6.677c-0.125,0.202-0.734,0.036-0.909,0
	C8.208,6.653,8.111,6.571,8.028,6.592c0.101-0.022,0.386,0.433,0.437,0.499C8.633,7.312,8.778,7.545,8.937,7.77
	c0.086,0.123,0.188,0.209,0.24,0.354c0.058,0.161,0.06,0.34,0.097,0.505c0.028,0.124,0.023,0.259,0.051,0.337
	c0.04,0.112,0.107,0.145,0.235,0.185C9.605,8.864,9.65,8.554,9.728,8.342c0.092-0.253,0.185-0.482,0.319-0.689
	c0.352-0.372,0.845-0.603,1.396-0.773C11.397,6.746,11.27,6.676,11.157,6.626z M7.206,6.431C7.205,6.429,7.204,6.427,7.202,6.425
	C7.118,6.271,6.995,6.146,6.854,6.044c-0.21-0.151-0.501,0.032-0.728,0.077C6.035,6.14,5.522,6.517,5.504,6.508
	c0.262,0.13,0.572,0.214,0.824,0.354c0.344-0.112,0.719-0.09,1.11-0.151C7.296,6.732,7.255,6.525,7.206,6.431z"/>
</svg>
