<?xml version="1.0" encoding="utf-8"?>
<!-- Generator: Adobe Illustrator 15.1.0, SVG Export Plug-In  -->
<!DOCTYPE svg PUBLIC "-//W3C//DTD SVG 1.1//EN" "http://www.w3.org/Graphics/SVG/1.1/DTD/svg11.dtd" [
	<!ENTITY ns_flows "http://ns.adobe.com/Flows/1.0/">
]>
<svg version="1.1"
	 xmlns="http://www.w3.org/2000/svg" xmlns:xlink="http://www.w3.org/1999/xlink" xmlns:a="http://ns.adobe.com/AdobeSVGViewerExtensions/3.0/"
	 x="0px" y="0px" width="20px" height="20px" viewBox="0 -4.52 20 20" enable-background="new 0 -4.52 20 20" xml:space="preserve">
<defs>
</defs>
<path fill-rule="evenodd" clip-rule="evenodd" fill="#333333" d="M7.524,5.827c-0.018,0.178-0.117,0.273-0.19,0.396
	c0.161,0.076,0.323,0.149,0.448,0.259C7.794,6.762,7.75,7.026,7.61,7.258C7.493,7.455,7.341,7.56,7.127,7.586
	C6.787,7.631,6.215,7.597,5.885,7.518C5.598,7.449,5.254,7.383,5.091,7.189C5.068,6.951,5.192,6.793,5.315,6.62
	c0.318-0.446,0.791-0.736,1.319-0.859C6.755,5.732,7.552,5.546,7.524,5.827z"/>
<path fill-rule="evenodd" clip-rule="evenodd" fill="#333333" d="M19.708,3.514c-0.111-0.269-0.221-0.484-0.38-0.725
	c-0.049-0.075-0.07-0.192-0.172-0.207c-0.533-0.043-0.903,0.122-1.294,0.293c-0.414,0.183-0.758,0.4-1.139,0.587
	c-0.547,0.269-1.141,0.563-2.002,0.467c-0.381-0.043-0.591-0.159-0.88-0.346c-0.181-0.117-0.373-0.237-0.518-0.346
	c-0.078-0.059-0.143-0.135-0.224-0.189c-0.261-0.175-0.57-0.319-0.846-0.448c-0.362-0.17-0.808-0.323-1.259-0.449
	C10.477,2.007,9.901,1.923,9.388,1.84c-0.693-0.11-1.68-0.131-2.485-0.034C6.651,1.836,6.43,1.953,6.161,1.943
	c0.457-0.194,0.964-0.339,1.501-0.414c0.393-0.055,0.847-0.102,1.243-0.087c0.366,0.015,0.771,0.063,1.122,0.104
	c0.234,0.028,0.48,0.061,0.708,0.104c0.501,0.097,1.003,0.277,1.467,0.484c0.077,0.034,0.167,0.05,0.242,0.086
	c0.445,0.211,0.972,0.475,1.363,0.776c0.138,0.106,0.241,0.249,0.397,0.328c0.452-0.37,0.877-0.877,1.122-1.433
	c0.038-0.085,0.099-0.18,0.121-0.259c0.082-0.295,0.032-0.66-0.156-0.794c-0.11-0.078-0.172-0.105-0.31-0.172
	c-0.347-0.169-0.69-0.269-1.07-0.38c-0.267-0.078-0.596-0.161-0.897-0.19c-1.07-0.101-2.429-0.131-3.521-0.052
	C9.311,0.059,9.119,0.076,8.939,0.097C8.75,0.119,8.54,0.163,8.353,0.2C7.75,0.321,7.139,0.436,6.575,0.684
	C6.299,0.805,6.046,0.89,5.816,1.029c-0.487,0.295-0.93,0.569-1.26,0.983c-0.085,0.107-0.183,0.2-0.259,0.311
	C3.899,2.429,3.591,2.662,3.296,2.893C2.848,3.244,2.432,3.62,2.088,4.049C1.972,4.194,1.85,4.339,1.726,4.48
	C1.478,4.765,1.24,5.057,1.001,5.343C0.744,5.546,0.509,5.771,0.19,5.912c0.125,0.151,0.309,0.336,0.397,0.466
	C0.441,6.352,0.318,6.303,0.138,6.31C0.076,6.379-0.005,6.431,0,6.568c0.103,0.107,0.23,0.185,0.345,0.259
	C0.417,6.873,0.47,6.92,0.535,6.948C0.56,6.959,0.558,6.976,0.57,6.982c0.214,0.118,0.44,0.214,0.655,0.328
	C1.663,7.543,2.11,7.753,2.589,7.932c0.416,0.154,0.883,0.304,1.294,0.432C4.085,8.425,4.257,8.461,4.47,8.519
	c0.4,0.109,0.798,0.234,1.208,0.293c0.126,0.308,0.312,0.594,0.483,0.829C6.207,9.703,6.268,9.766,6.316,9.83
	c0.102,0.134,0.199,0.282,0.311,0.396c0.051,0.053,0.12,0.101,0.172,0.155c0.31,0.32,0.684,0.575,1.036,0.846
	c0.329,0.188,0.582,0.454,1.07,0.483c0.015-0.025,0.014-0.066,0.069-0.052c0.11-0.39,0.054-0.763-0.018-1.07
	c-0.045-0.194-0.069-0.307-0.121-0.432c-0.275-0.67-0.828-1-1.501-1.208c0.399,0.124,1.202-0.008,1.609-0.041
	c0.117-0.01,0.233-0.022,0.349-0.034c0.003-0.009,0.011-0.019,0.024-0.021c0.325-0.053,0.654-0.099,0.98-0.145
	c0.001,0,0.002,0,0.004,0c0.07-0.012,0.14-0.022,0.21-0.028c0.089-0.017,0.179-0.027,0.271-0.026
	c0.015,0.001,0.025,0.009,0.03,0.019c0.087-0.003,0.161,0.016,0.198,0.071c0.108,0.022,0.283,0.22,0.352,0.269
	c0.198,0.141,0.422,0.22,0.649,0.3c0.282,0.1,0.596,0.136,0.915,0.155c0.306,0.018,0.612-0.044,0.914-0.087
	c0.75-0.105,1.459-0.292,2.123-0.673c0.057-0.032,0.122-0.052,0.155-0.104c-0.004-0.299-0.142-0.587-0.259-0.794
	c-0.029-0.053-0.057-0.114-0.086-0.155c-0.267-0.372-0.596-0.625-1.018-0.793c-0.109-0.045-0.248-0.069-0.379-0.104
	c-0.418-0.109-0.837-0.209-1.243,0.017c-0.381,0.211-0.753,0.458-1.122,0.656c-0.433,0.233-0.882,0.472-1.381,0.639
	c-0.485,0.162-1.066,0.298-1.656,0.362C8.65,8.468,8.308,8.449,7.973,8.449s-0.67-0.019-0.966-0.051
	C6.83,8.378,6.648,8.313,6.472,8.295c-0.208-0.022-0.394-0.036-0.586-0.07c-1.148-0.204-2.117-0.408-2.968-0.88
	c0.701-0.161,0.902-0.824,1.19-1.397C4.624,5.239,5.438,4.78,6.351,4.48c1.015-0.334,1.994-0.433,3.054-0.501
	c1.06-0.068,1.96,0.094,2.847,0.312c0.371,0.09,0.718,0.212,1.053,0.327c0.507,0.176,0.875,0.41,1.381,0.553
	c0.132,0.037,0.269,0.09,0.397,0.121c0.173,0.041,0.375,0.052,0.483,0.068c0.696,0.105,1.439,0.037,2.071-0.018
	c0.11,0.11,0.227,0.22,0.293,0.38c0.206,0.496,0.001,1.153-0.225,1.45c-0.014,0.018-0.07,0.032-0.034,0.068
	c0.123,0.123,0.297,0.114,0.427,0.196c0.076,0.048,0.164,0.067,0.239,0.109c0.045,0.022,0.084,0.057,0.127,0.074
	c0.071,0.028,0.149,0.058,0.207,0.052c0.09-0.01,0.365-0.239,0.379-0.294c0.006-0.024,0.024-0.002,0.035-0.017
	c0.14-0.195,0.299-0.383,0.414-0.587c0.22-0.39,0.436-0.843,0.483-1.363C20.049,4.696,19.916,4.017,19.708,3.514z M2.641,5.584
	c-0.184,0.166-0.451,0.222-0.604,0c-0.067-0.178,0.128-0.296,0.328-0.31c0.061-0.021,0.18,0.081,0.241,0.068
	C2.651,5.402,2.673,5.494,2.641,5.584z"/>
<circle fill-rule="evenodd" clip-rule="evenodd" fill="#FFFFFF" cx="2.353" cy="5.519" r="0.337"/>
</svg>
