<?xml version="1.0" encoding="utf-8"?>
<!-- Generator: Adobe Illustrator 15.1.0, SVG Export Plug-In  -->
<!DOCTYPE svg PUBLIC "-//W3C//DTD SVG 1.1//EN" "http://www.w3.org/Graphics/SVG/1.1/DTD/svg11.dtd" [
	<!ENTITY ns_flows "http://ns.adobe.com/Flows/1.0/">
]>
<svg version="1.1"
	 xmlns="http://www.w3.org/2000/svg" xmlns:xlink="http://www.w3.org/1999/xlink" xmlns:a="http://ns.adobe.com/AdobeSVGViewerExtensions/3.0/"
	 x="0px" y="0px" width="20px" height="20px" viewBox="-0.016 -1.602 20 20" enable-background="new -0.016 -1.602 20 20"
	 xml:space="preserve">
<defs>
</defs>
<path fill-rule="evenodd" clip-rule="evenodd" fill="#575756" d="M18.361,0.648C18.692,0.424,19.954,0.291,20,0.891
	c0.012,0.152-0.214,0.472-0.349,0.618c-0.279,0.299-0.622,0.431-1.156,0.403c0.171,1.182,0.403,2.31,0.403,3.6
	c0,1.17-0.071,2.45-0.375,3.467c-0.209,0.692-0.724,1.695-1.236,2.123c-0.195,0.163-0.484,0.248-0.618,0.429
	c-0.195,0.267-0.07,0.669-0.107,1.102c-0.062,0.719-0.532,1.239-0.457,1.988c0.068,0.683,0.609,1.258,0.511,2.016
	c-0.057,0.086-0.136,0.15-0.188,0.241c-0.368,0.003-0.783,0.087-0.994-0.08c-0.146-0.115-0.254-0.589-0.296-0.86
	c-0.103-0.67,0.071-1.525-0.295-1.88c-0.329,0.216-0.555,0.606-0.564,1.102c-0.012,0.6,0.425,1.001,0.564,1.424
	c0.176,0.538-0.125,0.631-0.617,0.592c-0.19-0.017-0.41,0.002-0.539-0.082c-0.235-0.152-0.293-0.682-0.375-1.102
	c-0.08-0.404-0.24-0.861-0.188-1.208c0.137-0.041,0.399,0.005,0.536,0.053c0.503-0.202,0.762-0.997,0.592-1.612
	c0.636-0.208,1.053-0.855,0.752-1.692c0.329-0.178,0.602-0.341,0.645-0.699c0.071-0.59-0.59-0.424-0.753-0.779
	c-0.093-0.202-0.016-0.461,0.081-0.591c-0.077-0.063-0.167,0.029-0.269-0.026c-0.121-0.51,0.193-0.882,0.591-1.129
	c0.162-0.1,0.389-0.128,0.564-0.215c0.347-0.172,0.898-0.809,0.51-1.209c-0.162-0.167-0.505-0.163-0.645-0.349
	c-0.374-0.499,0.021-1.192,0.457-1.558c-0.055-0.151-0.002-0.291,0-0.457c0.262-0.37,0.854-0.634,1.183-0.994
	c0.253-0.28,0.204-0.877,0.134-1.451c-1.104,0.275-0.849-1.091,0.161-0.779c-0.063-0.986-3.232-1.025-2.741,0.51
	c0.795-0.307,1.085,0.482,1.397,0.914c-0.001,0.274-0.014,0.646-0.161,0.887c-0.182,0.298-0.739,0.707-1.048,0.807
	c-0.536,0.172-0.822-0.081-0.968-0.484c-0.348,0.181-0.532,0.525-0.751,0.833c-0.375,0.048-0.703-0.054-1.102,0
	c-0.333,0.044-0.59,0.255-0.887,0.241c-0.351-0.015-0.611-0.305-0.94-0.376C9.916,4.507,9.267,4.782,8.742,4.84
	c-0.579,0.064-0.936-0.298-1.397-0.35c-0.144-0.016-0.28,0.03-0.43,0.027C6.695,4.515,6.474,4.414,6.27,4.411
	C5.874,4.404,5.367,4.668,5.062,4.276c0.135-0.213,0.447-0.172,0.671-0.215c0.661-0.126,1.56-0.25,2.365-0.215
	c0.566,0.025,1.096,0.155,1.638,0.241c0.333,0.053,0.643,0.115,0.967,0.081c0.302-0.031,0.641-0.206,0.941-0.242
	c0.602-0.072,1.203,0.11,1.692-0.08c0.355-0.139,0.524-0.417,0.888-0.537c0.07-0.502,0.533-0.919,0.294-1.478
	c-0.355,0.084-0.823,0.065-1.155-0.162c-0.2-0.137-0.527-0.503-0.512-0.671c0.014-0.14,0.34-0.343,0.458-0.377
	c0.4-0.114,0.93,0.089,1.155,0.242c0.52-0.294,1.237-0.813,2.042-0.859c0.433-0.025,1.011,0.042,1.316,0.214
	C18.008,0.323,18.115,0.572,18.361,0.648"/>
<path fill-rule="evenodd" clip-rule="evenodd" fill="#575756" d="M7.614,8.548C7.562,9.182,6.553,9.41,6.056,9.032
	c-0.797,0.377-1.97,0.01-1.854-0.968C4.225,7.866,4.376,7.362,4.686,7.5c0.2,0.09,0.099,0.317,0.134,0.539
	c0.069,0.434,0.472,0.584,0.994,0.429c0.218-0.064,0.38-0.261,0.646-0.216c0.171,0.03,0.225,0.253,0.43,0.296
	C7.173,8.609,7.377,8.358,7.614,8.548"/>
<path fill-rule="evenodd" clip-rule="evenodd" fill="#575756" d="M2.509,7.581c0.143,0.177,0.022,0.36,0.027,0.564
	c0.015,0.694,0.481,1.203,1.29,1.075c0.192,0.083,0.181,0.301,0.376,0.403C4.443,9.75,4.751,9.687,5.061,9.73
	c0.092,0.112-0.074,0.249-0.053,0.377c0.059,0.366,0.737,0.422,1.181,0.214c0.278-0.13,0.339-0.521,0.565-0.537
	c0.433-0.03,0.265,0.586,0.081,0.779c-0.122,0.126-0.447,0.293-0.646,0.322c-0.216,0.032-0.39-0.073-0.59-0.081
	c-0.172-0.006-0.328,0.093-0.484,0.081c-0.144-0.011-0.243-0.137-0.376-0.161c-0.385-0.071-0.862,0.119-1.155-0.189
	c0.062-0.083-0.098-0.204-0.161-0.322c-0.076-0.139-0.108-0.301-0.215-0.375C2.165,9.832,1.77,8.324,2.375,7.554
	C2.439,7.543,2.433,7.604,2.509,7.581"/>
<path fill-rule="evenodd" clip-rule="evenodd" fill="#575756" d="M11.859,10.107c-0.323,0.214-0.694,0.568-1.29,0.564
	c-0.786-0.005-1.991-0.364-1.559-1.235c0.418,0.349,1.09,0.797,1.746,0.483c0.319-0.153,0.633-0.639,0.86-0.672
	c0.204-0.029,0.366,0.135,0.563,0.161c0.61,0.08,1.256-0.309,1.236-0.887c-0.006-0.205-0.198-0.374,0-0.537
	c0.784-0.109,0.876,0.774,0.619,1.316c-0.142,0.298-0.774,0.786-1.236,0.913c-0.246,0.068-0.491,0.004-0.726,0.028
	C11.989,10.208,11.907,10.174,11.859,10.107"/>
<path fill-rule="evenodd" clip-rule="evenodd" fill="#575756" d="M4.014,4.383c-0.112,0.11-0.299,0.065-0.43,0.108
	C2.993,4.689,2.596,5.234,2.536,5.969C1.834,5.536,0.522,6.83,1.085,7.501C1.34,7.523,1.608,7.533,1.703,7.716
	c-0.365,0.687-0.72,2.089,0.107,2.526c-0.01,0.286-0.108,0.461-0.027,0.752c0.05,0.177,0.229,0.262,0.215,0.403
	c-0.016,0.16-0.161,0.171-0.322,0.269c-0.582,0.769-0.639,2.776-0.027,3.547c0.056-0.557,0.292-0.872,0.617-1.235
	c0.206-0.231,0.484-0.521,0.484-0.78c0.001-0.303-0.34-0.645-0.242-1.155c0.033-0.168,0.182-0.394,0.404-0.403
	c0.296-0.014,0.552,0.351,0.805,0.403c0.607,0.12,1.161-0.097,1.558-0.323c0.189-0.108,0.312-0.34,0.619-0.351
	c0.255-0.007,0.565,0.152,0.887,0.188c0.205,0.025,0.398-0.055,0.563,0.054c0.271-0.064,0.543-0.238,0.833-0.269
	c0.474-0.049,0.93,0.382,1.37,0.457c0.306,0.052,0.662,0.002,0.914-0.08c0.548-0.18,0.975-0.753,1.612-0.323
	c0.248,0.596-0.418,0.969-1.021,1.128c-0.604,0.159-1.363-0.018-1.907-0.053c-0.225-0.014-0.593,0.075-0.806,0.08
	c-0.304,0.006-0.666-0.043-0.967-0.107c-0.177-0.038-0.34-0.055-0.511-0.08c-0.205-0.03-0.531-0.171-0.753-0.135
	c-0.167,0.028-0.371,0.25-0.43,0.322c-0.761,0.955-0.579,2.402-0.107,3.385c0.164,0.341,0.565,0.688,0.35,1.102
	c-0.216,0.053-0.459-0.013-0.699-0.054c-0.342-0.061-0.764-0.065-0.914-0.295c-0.202-0.312-0.136-0.907-0.323-1.344
	c-0.071-0.165-0.234-0.328-0.295-0.483c-0.263-0.673,0.177-1.423,0-2.042c-0.284,0.41-0.396,1.027-0.699,1.479
	c-0.204,0.303-0.525,0.652-0.456,1.237c0.066,0.557,0.552,1.165,0.269,1.771c-0.512-0.014-0.945-0.111-1.317-0.268
	c-0.116-0.302,0.029-0.639-0.053-0.94c-0.104-0.381-0.385-0.659-0.483-1.021c-0.262-0.957-0.229-2.524-0.054-3.572
	c0.047-0.285,0.146-0.624,0.108-0.86c-0.03-0.176-0.199-0.3-0.27-0.484C0.48,9.497,0.724,8.664,0.978,8.091
	C0.635,7.897,0.082,8.181,0.01,7.635c-0.109-0.84,0.748-1.74,1.317-2.042C1.465,5.52,1.64,5.506,1.73,5.485
	C1.986,4.648,3.001,4.121,4.014,4.383"/>
</svg>
