<?xml version="1.0" encoding="utf-8"?>
<!-- Generator: Adobe Illustrator 15.1.0, SVG Export Plug-In  -->
<!DOCTYPE svg PUBLIC "-//W3C//DTD SVG 1.1//EN" "http://www.w3.org/Graphics/SVG/1.1/DTD/svg11.dtd" [
	<!ENTITY ns_flows "http://ns.adobe.com/Flows/1.0/">
]>
<svg version="1.1"
	 xmlns="http://www.w3.org/2000/svg" xmlns:xlink="http://www.w3.org/1999/xlink" xmlns:a="http://ns.adobe.com/AdobeSVGViewerExtensions/3.0/"
	 x="0px" y="0px" width="20px" height="20px" viewBox="0.07 -3.485 20 20" enable-background="new 0.07 -3.485 20 20"
	 xml:space="preserve">
<defs>
</defs>
<path fill-rule="evenodd" clip-rule="evenodd" fill="#333333" d="M5.56,0.602c0.105,0.315,0.077,0.766,0.18,1.083
	c0.528,0.214,1.372,0.382,1.725,0.822c0.096,0.12,0.203,0.374,0.221,0.541C7.721,3.389,7.521,3.641,7.304,3.79
	C6.932,4.047,6.347,4.161,5.8,4.231C5.651,5.022,5.367,5.823,5.058,6.518c0.545,0.204,1.228,0.033,1.885,0.12
	C6.915,6.778,6.834,6.909,6.763,7.039C6.549,7.431,6.357,7.796,6.181,8.263C6.074,8.546,5.976,8.845,5.86,9.146
	c-0.264,0.686-0.407,1.363-0.521,2.226c-0.112,0.843-0.138,1.659,0.08,2.367c-0.399-0.109-0.73-0.367-1.063-0.582
	c-0.289-0.186-0.537-0.32-0.822-0.541c-0.152-0.118-0.296-0.26-0.441-0.381c-0.429-0.361-0.761-0.72-1.083-1.164
	c-0.279-0.385-0.587-0.78-0.822-1.263C0.815,9.042,0.442,8.142,0.525,7.079c1.35-0.01,2.296,0.55,3.129,1.123
	c0.066-0.309,0.104-0.551,0.1-0.902C3.229,7.196,2.718,7.08,2.311,6.858c0.006-0.348,0-0.74,0-1.183c0-0.112-0.052-0.282,0.06-0.341
	c0.12-0.014,0.034,0.179,0.06,0.26C2.56,5.858,2.674,6.142,2.872,6.357c0.212,0.231,0.765,0.541,1.183,0.401
	c0.388-0.13,0.698-0.561,0.902-0.982c0.32-0.663,0.543-1.384,0.542-2.308c-0.306-0.274-0.955-0.415-1.645-0.4
	C2.951,3.087,2.108,3.106,2.19,4.051c0.012,0.134,0.081,0.16,0.04,0.261C2.07,4.459,1.774,4.532,1.548,4.513
	C1.136,4.476,0.668,4.268,0.365,3.991c-0.253-0.23-0.479-0.564-0.301-1.063c0.047-0.133,0.182-0.311,0.281-0.421
	C0.786,2.014,1.609,1.665,2.29,1.464c0.016-0.179,0.045-0.45,0.041-0.582C2.945,0.209,4.693,0.079,5.56,0.602"/>
<path fill-rule="evenodd" clip-rule="evenodd" fill="#333333" d="M17.994,8.443c-0.11,0.397-0.355,0.743-0.562,1.083
	c-0.676,1.113-1.554,2.052-2.667,2.748c-0.146-0.543-0.211-1.166-0.361-1.705c0.901-0.214,1.643-0.681,2.286-1.144
	c0.209-0.15,0.401-0.288,0.582-0.461c0.188-0.18,0.353-0.386,0.561-0.562C17.879,8.424,17.955,8.416,17.994,8.443"/>
<path fill-rule="evenodd" clip-rule="evenodd" fill="#333333" d="M20,6.999c-0.061,1.742-1.008,3.02-1.885,4.111
	c-0.348,0.434-0.798,0.826-1.244,1.184c-0.508,0.407-1.071,0.736-1.785,0.983c-0.155,0.053-0.343,0.155-0.501,0.06
	c0.021-0.133,0.228-0.153,0.341-0.221c0.21-0.126,0.448-0.331,0.662-0.521c0.206-0.184,0.431-0.349,0.622-0.541
	c0.59-0.597,1.118-1.173,1.565-1.926c0.48-0.809,1.099-1.693,1.002-2.969c-1.092,0.299-1.863,0.918-2.647,1.524
	c-0.675-0.435-1.387-0.833-2.227-1.103c0.033-0.099,0.151-0.06,0.221-0.08c0.477-0.142,0.951-0.406,1.323-0.683
	c0.1-0.12,0.179-0.262,0.261-0.4c-0.004-0.145,0.022-0.259,0.061-0.361c-0.357-0.474-0.728-0.973-0.682-1.745
	c-0.181-0.097-0.398-0.093-0.582-0.181c-0.314-0.149-0.647-0.578-0.762-0.882c-0.137-0.362-0.016-0.73,0.04-1.163
	c0.261-0.6,0.635-1.082,1.164-1.465c0.311-0.225,0.482-0.305,0.862-0.421c0.299-0.091,0.725-0.205,1.143-0.2
	c0.499,0.005,1.13,0.174,1.504,0.4c0.779,0.473,1.444,1.257,1.243,2.407c-0.012,0.071-0.051,0.157-0.08,0.221
	c-0.314,0.698-0.88,1.308-1.424,1.805c-0.111,0.24-0.213,0.518-0.361,0.742c-0.077,0.117-0.253,0.237-0.26,0.381
	c-0.012,0.216,0.304,0.529,0.441,0.622C18.5,6.904,19.383,6.842,20,6.999 M18.015,1.203c-0.334-0.227-0.804-0.406-1.204-0.521
	c-0.271-0.079-0.753-0.12-1.003-0.061c-0.046,0.012-0.075,0.066-0.12,0.08c-0.085,0.027-0.17,0.016-0.241,0.041
	c-0.604,0.209-1.27,0.922-1.384,1.544c-0.104,0.569,0.138,1.089,0.441,1.404c0.169,0.175,0.364,0.34,0.602,0.461
	c0.037-1.063,0.568-1.839,1.344-2.126c0.324-0.12,0.704,0.019,0.963,0.261c0.521,0.487,1.104,1.162,0.922,2.146
	c0.2-0.188,0.363-0.435,0.401-0.742c0.1-0.806-0.311-1.182-0.602-1.604c-0.001-0.242,0.227-0.256,0.361-0.361
	C18.404,1.535,18.211,1.336,18.015,1.203"/>
<path fill-rule="evenodd" clip-rule="evenodd" fill="#333333" d="M5.98,13.999c-0.086-0.767-0.112-1.641-0.04-2.647
	c0.046-0.647,0.078-1.347,0.281-1.865c0.219-0.56,0.796-0.872,1.043-1.304C7.38,7.979,7.406,7.547,7.445,7.26
	c0.069-0.513,0.146-0.936,0.281-1.364c0.058-0.184,0.079-0.391,0.14-0.541c0.259-0.633,0.77-1.147,1.484-1.363
	c0.292-0.089,0.462-0.076,0.722-0.121c1.248-0.216,1.967,0.717,2.246,1.645c0.132,0.438,0.189,0.99,0.221,1.505
	c0.037,0.615-0.023,1.303,0.18,1.765c0.065,0.146,0.184,0.25,0.221,0.401c0.369,0.271,0.702,0.654,0.822,1.224
	c0.019,0.088,0,0.188,0.02,0.32c0.038,0.248,0.151,0.548,0.181,0.862c0.056,0.591,0.026,1.322-0.02,1.946
	c-0.017,0.223,0.004,0.461-0.04,0.581c-0.07,0.19-0.529,0.364-0.862,0.481c-0.34,0.119-0.761,0.258-1.023,0.301
	c-0.277,0.045-0.691,0.056-0.902-0.101c-0.12-0.088-0.095-0.277-0.201-0.401c-0.082-0.096-0.355-0.159-0.521-0.14
	c-0.637,0.075-1.363,0.628-1.986,0.682c-0.494,0.043-0.958-0.165-1.344-0.321c-0.321-0.129-0.609-0.266-0.862-0.461
	c-0.035-0.026-0.109-0.049-0.14-0.08C6.027,14.045,6.08,13.929,5.98,13.999 M8.588,5.856C8.332,7.065,8.54,8.413,9.229,8.984
	c0.128,0.106,0.314,0.265,0.441,0.301c0.461,0.132,0.809-0.176,1.003-0.4c0.522-0.606,0.786-1.715,0.782-2.729
	C10.886,5.43,9.456,5.366,8.588,5.856"/>
</svg>
