<?xml version="1.0" encoding="utf-8"?>
<!-- Generator: Adobe Illustrator 15.1.0, SVG Export Plug-In  -->
<!DOCTYPE svg PUBLIC "-//W3C//DTD SVG 1.1//EN" "http://www.w3.org/Graphics/SVG/1.1/DTD/svg11.dtd" [
	<!ENTITY ns_flows "http://ns.adobe.com/Flows/1.0/">
]>
<svg version="1.1"
	 xmlns="http://www.w3.org/2000/svg" xmlns:xlink="http://www.w3.org/1999/xlink" xmlns:a="http://ns.adobe.com/AdobeSVGViewerExtensions/3.0/"
	 x="0px" y="0px" width="20px" height="20px" viewBox="0.098 -0.564 20 20" enable-background="new 0.098 -0.564 20 20"
	 xml:space="preserve">
<defs>
</defs>
<path fill-rule="evenodd" clip-rule="evenodd" fill="#575756" d="M18.349,0.193c-0.487,0.127-1.031,0.26-1.336,0.63
	c-1.258,1.521-1.383,4.108-1.651,6.605c-0.281,2.599-0.288,5.318-0.499,7.734c-0.705,0.048-1.329-0.117-1.677-0.5
	c0.503-3.811,0.522-7.811,1.206-11.533c0.292-1.593,1.296-2.961,3.014-3.119C17.822-0.027,18.047,0.04,18.349,0.193"/>
<path fill-rule="evenodd" clip-rule="evenodd" fill="#575756" d="M20,0.142c-0.05,0.229-0.24,0.317-0.393,0.446
	c-1.308,1.999-1.539,4.993-1.834,7.915c-0.012,0.117-0.066,0.224-0.079,0.34c-0.155,1.401-0.172,2.895-0.498,4.274
	c-0.035,0.146-0.098,0.293-0.131,0.445c-0.026,0.122,0.029,0.348-0.156,0.393c-0.208-0.091-0.093-0.419-0.079-0.681
	c0.012-0.251,0.01-0.52,0.025-0.787c0.158-2.597,0.126-5.747,0.603-8.335c0.026-0.139,0.11-0.265,0.132-0.393
	c0.058-0.348,0.081-0.682,0.157-1.023c0.194-0.87,0.642-2.113,1.311-2.543C19.311,0.032,19.703-0.019,20,0.142"/>
<path fill-rule="evenodd" clip-rule="evenodd" fill="#575756" d="M15.334,0.324c-0.097,0.438-0.679,0.353-1.048,0.499
	c-1.054,0.419-1.615,1.886-1.862,3.146c-0.141,0.722-0.201,1.47-0.314,2.202c-0.114,0.736-0.076,1.473-0.157,2.202
	c-0.052,0.468-0.143,0.955-0.184,1.415c-0.06,0.679-0.104,1.347-0.157,2.019c-0.046,0.58,0.011,1.187-0.157,1.756
	c-0.507-0.002-0.882,0.201-1.153,0.446c-0.124,0.109-0.2,0.286-0.341,0.34c0.266-2.274,0.307-4.877,0.629-7.443
	c0.325-2.585,0.716-5.276,2.752-6.213c0.176-0.081,0.429-0.125,0.655-0.211C14.373,0.343,14.864,0.144,15.334,0.324"/>
<path fill-rule="evenodd" clip-rule="evenodd" fill="#575756" d="M7.838,14.925c0.476-0.536,1.638-0.302,2.018,0.238
	c0.435-0.33,0.845-0.726,1.547-0.657c0.32,0.032,0.692,0.193,0.97,0.341c0.561,0.298,1.071,0.721,1.914,0.708
	c0.682-0.01,1.22-0.266,1.73-0.576c0.154-0.095,0.256-0.28,0.472-0.262c-0.132,0.799-0.786,1.492-1.704,1.492
	c-0.816,0-1.704-0.438-2.359-0.761c-0.321-0.157-0.564-0.397-0.969-0.419c-0.81-0.042-1.333,0.299-1.704,0.918
	c-0.508-0.364-1.063-0.835-1.888-0.603c-0.46,0.129-0.765,0.61-1.179,0.76c-0.256-0.674-1.22-1.502-2.071-0.941
	c-0.186,0.12-0.269,0.295-0.419,0.496c-0.965-0.46-2.227-1.611-3.565-0.918C0.402,14.859,0.307,15.055,0,15.136
	c0.295-0.516,0.874-0.941,1.599-1.022c0.911-0.103,1.731,0.331,2.28,0.682c0.397-0.87,1.719-1.152,2.857-0.762
	C7.152,14.283,7.537,14.562,7.838,14.925"/>
<path fill-rule="evenodd" clip-rule="evenodd" fill="#575756" d="M17.222,16.708c0.063,0.208-0.214,0.289-0.263,0.472
	c-0.621,0.575-1.334,0.897-2.359,0.916c-0.795,0.018-1.59-0.038-2.28,0.211c-0.917,0.33-1.604,1.067-2.936,1.023
	c-0.434-0.015-0.795-0.127-1.232-0.185c-0.613-0.305-1.205-0.631-1.756-0.996c-0.197-0.324-0.614-0.426-0.76-0.734
	c-0.148-0.024-0.296-0.141-0.446-0.184c-0.132-0.037-0.302,0.013-0.367-0.104c0.053-0.153,0.24-0.096,0.341-0.081
	c0.465,0.072,0.962,0.467,1.442,0.553c0.059,0.099,0.208,0.105,0.262,0.209c0.81,0.234,1.498,0.683,2.542,0.655
	c0.52-0.013,1.036-0.156,1.468-0.341c0.886-0.379,1.586-1.016,2.621-0.995c0.347,0.006,0.698,0.135,1.049,0.184
	c0.982,0.135,1.908-0.037,2.543-0.55c0.006-0.03,0.051-0.02,0.052-0.054H17.222z"/>
<path fill-rule="evenodd" clip-rule="evenodd" fill="#575756" d="M8.65,13.117c-0.36,0.042-0.571,0.231-0.813,0.393
	c-0.112-0.185-0.243-0.351-0.394-0.499C7.64,10.643,7.958,8.35,8.31,6.092c0.264-1.697,0.704-3.265,1.573-4.43
	C9.051,1.743,8.337,2.12,7.942,2.736c-0.25,0.39-0.35,0.966-0.498,1.598C6.881,6.746,6.673,9.769,6.501,12.46
	c-1.468-0.104-2.393,0.376-2.962,1.234c-0.329-0.328-0.964-0.567-1.651-0.5c-0.772,0.077-1.29,0.548-1.625,0.997
	c0.06-1.291,1.719-2.06,2.937-1.469c0.525-0.664,1.366-1.146,2.595-1.022c0.371-2.157,0.504-4.527,0.944-6.685
	c0.081-0.394,0.26-0.771,0.367-1.151c0.128-0.462,0.21-0.791,0.419-1.154c0.354-0.618,0.751-1.031,1.494-1.311
	c0.151-0.056,0.33-0.152,0.472-0.184c0.26-0.055,0.542,0.034,0.786-0.052c0.149-0.053,0.32-0.257,0.472-0.367
	c0.475-0.346,1.042-0.623,1.835-0.683c0.37-0.026,0.705,0.089,1.205,0.133c-0.672,0.202-1.345,0.217-1.887,0.471
	c-0.237,0.11-0.462,0.304-0.656,0.472c-1.13,0.986-1.622,2.285-1.834,4.143C9.374,5.65,9.374,5.879,9.332,6.249
	c-0.019,0.168-0.106,0.327-0.13,0.499C9.168,6.967,9.172,7.201,9.148,7.429c-0.12,1.14-0.271,2.572-0.419,3.879
	c-0.035,0.31-0.002,0.633-0.027,0.945C8.682,12.515,8.611,12.782,8.65,13.117"/>
</svg>
