<?xml version="1.0" encoding="utf-8"?>
<!-- Generator: Adobe Illustrator 15.1.0, SVG Export Plug-In  -->
<!DOCTYPE svg PUBLIC "-//W3C//DTD SVG 1.1//EN" "http://www.w3.org/Graphics/SVG/1.1/DTD/svg11.dtd" [
	<!ENTITY ns_flows "http://ns.adobe.com/Flows/1.0/">
]>
<svg version="1.1"
	 xmlns="http://www.w3.org/2000/svg" xmlns:xlink="http://www.w3.org/1999/xlink" xmlns:a="http://ns.adobe.com/AdobeSVGViewerExtensions/3.0/"
	 x="0px" y="0px" width="20px" height="20px" viewBox="0 -0.001 20 20" enable-background="new 0 -0.001 20 20"
	 xml:space="preserve">
<defs>
</defs>
<path fill-rule="evenodd" clip-rule="evenodd" fill="#333333" d="M8.376,9.832c-0.295,0.436,0.243,0.595,0.422,0.816
	c0.412-0.134,0.55-0.541,0.986-0.535c0.614,0.009,0.823,0.846,0.451,1.239c-0.109,0.115-0.461,0.288-0.479,0.395
	c-0.025,0.149,0.454,0.675,0.423,0.873c0.463-0.004,0.969-0.049,1.155,0.226c0.02,0.243,0.094,0.432,0.141,0.647
	c-0.164,0.362-0.669,0.383-1.014,0.563c0.029,0.275,0.044,0.599-0.028,0.901c0.244,0.319,0.622,0.505,0.873,0.816
	c-0.08,0.371-0.172,0.729-0.422,0.93c-0.323-0.062-0.558-0.212-0.901-0.253c-0.198,0.299-0.39,0.605-0.592,0.901
	c0.094,0.31,0.326,0.631,0.395,0.873c-0.152,0.308-0.44,0.479-0.704,0.676c-0.279-0.153-0.423-0.44-0.676-0.619
	c-0.384,0.169-0.714,0.394-1.126,0.535c0.012,0.363-0.057,0.651,0,0.985C7.045,19.937,6.695,19.952,6.376,20
	c-0.174-0.248-0.248-0.598-0.338-0.93c-0.513,0.015-0.986-0.01-1.38-0.112c-0.178,0.263-0.322,0.561-0.451,0.873
	c-0.379-0.016-0.66-0.129-0.845-0.338c0.012-0.345,0.104-0.61,0.169-0.901c-0.163-0.203-0.389-0.274-0.62-0.451
	c-0.11-0.085-0.414-0.457-0.563-0.479C2.061,17.621,1.767,18.035,1.447,18c-0.307-0.033-0.456-0.441-0.592-0.761
	c0.211-0.258,0.479-0.46,0.705-0.704c-0.155-0.276-0.291-0.573-0.366-0.93c-0.302-0.177-0.829-0.129-1.099-0.338
	c-0.127-0.227-0.117-0.682-0.028-0.985c0.3-0.132,0.69-0.174,0.958-0.338c0.025-0.351,0.09-0.661,0.169-0.958
	c-0.25-0.229-0.516-0.441-0.789-0.647c-0.016-0.384,0.139-0.735,0.366-0.958c0.381,0.052,0.601,0.264,0.93,0.366
	c0.131-0.084,0.17-0.312,0.31-0.507c0.075-0.104,0.239-0.176,0.254-0.311c0.033-0.304-0.397-0.63-0.366-0.957
	c0.024-0.262,0.389-0.494,0.676-0.479c0.381,0.02,0.438,0.401,0.761,0.591c0.407-0.128,0.736-0.334,1.155-0.45
	c0.016-0.369,0.077-0.693,0.113-1.042c0.185-0.148,0.677-0.264,0.929-0.085C5.638,8.805,5.677,9.17,5.757,9.494
	C6.21,9.412,6.401,9.663,6.743,9.606c0.446-0.074,0.516-0.86,1.014-0.901c0.238-0.02,0.446,0.142,0.676,0.338
	C8.385,9.211,8.414,9.456,8.376,9.635c0.165-0.099,0.323-0.447,0.479-0.648C8.683,8.689,8.433,8.47,8.32,8.113
	C7.949,8.058,7.61,8.142,7.193,8.058C7.065,7.855,6.809,7.344,6.94,7.071C7.075,6.79,7.669,6.857,7.785,6.536
	c0.001-0.345-0.062-0.669,0-0.958C7.491,5.4,7.201,5.274,6.855,5.1c-0.1-0.408,0.01-0.673,0.141-1.014
	c0.31-0.043,0.701,0.152,1.014,0.169C8.157,3.913,8.227,3.61,8.404,3.382C8.325,2.979,7.735,2.757,7.813,2.367
	C7.854,2.161,8.19,1.891,8.376,1.86c0.348-0.056,0.603,0.362,0.901,0.423c0.354-0.199,0.612-0.496,1.014-0.648
	c0.037-0.365-0.185-0.717-0.112-1.014c0.08-0.33,0.635-0.42,0.929-0.31c0.109,0.304,0.268,0.558,0.366,0.873
	c0.363-0.039,0.733-0.067,1.014-0.085c0.366-0.263,0.387-0.871,0.789-1.098c0.33-0.015,0.54,0.072,0.761,0.225
	c0.017,0.382,0.073,0.755,0.084,1.155c0.193,0.115,0.413,0.206,0.62,0.31c0.309-0.209,0.452-0.675,0.845-0.732
	c0.351-0.051,0.795,0.323,0.817,0.676c0.024,0.399-0.378,0.641-0.507,0.93c0.199,0.252,0.393,0.509,0.591,0.761
	c0.43-0.017,0.786-0.279,1.099-0.057c0.107,0.077,0.373,0.647,0.31,0.817c-0.112,0.299-0.689,0.351-0.845,0.619
	c0.113,0.302,0.143,0.55,0.169,0.901c0.326,0.2,0.695,0.357,1.014,0.563c0.009,0.376-0.03,0.746-0.197,1.014
	c-0.369,0.001-0.651-0.099-0.958-0.056c-0.109,0.253-0.245,0.683-0.395,0.985c0.168,0.301,0.418,0.521,0.591,0.817
	c-0.146,0.304-0.347,0.555-0.563,0.788c-0.299-0.124-0.505-0.34-0.789-0.479c-0.338,0.243-0.623,0.541-0.986,0.761
	c0.076,0.351,0.072,0.617,0.197,0.929c-0.16,0.254-0.557,0.271-0.817,0.423c-0.249-0.211-0.386-0.533-0.535-0.845
	c-0.466,0.104-0.958,0.214-1.38,0.169c-0.126,0.294-0.184,0.625-0.282,0.958c-0.281,0.064-0.642-0.01-0.845-0.113
	c-0.112-0.333-0.051-0.628-0.056-0.985c-0.45-0.192-0.932-0.368-1.324-0.648c-0.328,0.06-0.535,0.54-0.874,0.535
	C8.756,10.42,8.503,10.094,8.376,9.832z M9.25,5.071C9.062,5.74,9.064,6.418,9.39,7.128c0.346,0.752,0.751,1.173,1.324,1.549
	c0.176,0.115,0.371,0.22,0.563,0.282c1.707,0.549,3.31-0.311,3.943-1.662c0.342-0.729,0.472-2.175-0.056-2.873
	c-0.041-0.055-0.027-0.093-0.056-0.141c-0.639-1.057-1.78-1.764-3.211-1.634C10.424,2.782,9.601,3.813,9.25,5.071z M2.743,12.817
	c-0.063,0.12-0.164,0.242-0.197,0.338c-0.293,0.834-0.144,1.896,0.169,2.507c0.228,0.445,0.417,0.672,0.732,0.986
	c0.586,0.585,1.778,0.963,2.732,0.788c1.457-0.266,2.658-1.631,2.62-3.352c-0.01-0.468-0.29-1.278-0.507-1.634
	c-0.433-0.709-1.588-1.513-2.845-1.465C4.025,11.041,3.264,11.831,2.743,12.817z"/>
<path fill-rule="evenodd" clip-rule="evenodd" fill="#FFFFFF" d="M11.897,2.649c1.432-0.13,2.573,0.577,3.211,1.634
	c0.029,0.048,0.015,0.086,0.056,0.141c0.528,0.698,0.398,2.144,0.056,2.873c-0.634,1.352-2.236,2.211-3.943,1.662
	c-0.192-0.063-0.387-0.167-0.563-0.282C10.141,8.301,9.736,7.88,9.39,7.128C9.064,6.418,9.062,5.74,9.25,5.071
	C9.601,3.813,10.424,2.782,11.897,2.649z M12.15,3.071c-2.015,0.047-3.205,2.164-2.366,4.057c0.567,1.003,1.643,1.743,2.929,1.577
	C14.128,8.522,15,7.232,15.108,5.973C15.036,4.274,13.822,3.032,12.15,3.071z"/>
<path fill-rule="evenodd" clip-rule="evenodd" fill="#333333" d="M15.108,5.973c-0.108,1.26-0.98,2.55-2.395,2.732
	c-1.286,0.166-2.362-0.574-2.929-1.577c-0.839-1.893,0.351-4.01,2.366-4.057C13.822,3.032,15.036,4.274,15.108,5.973z M11.221,5.72
	c-0.008,0.083,0.013,0.27,0.028,0.338c0.292,1.336,2.384,1.117,2.197-0.423C13.23,4.446,11.336,4.512,11.221,5.72z"/>
<path fill-rule="evenodd" clip-rule="evenodd" fill="#FFFFFF" d="M5.447,10.986c1.257-0.048,2.412,0.756,2.845,1.465
	c0.217,0.355,0.497,1.166,0.507,1.634c0.038,1.721-1.163,3.086-2.62,3.352c-0.954,0.175-2.146-0.203-2.732-0.788
	c-0.315-0.314-0.504-0.541-0.732-0.986c-0.313-0.61-0.462-1.673-0.169-2.507c0.034-0.096,0.134-0.218,0.197-0.338
	C3.264,11.831,4.025,11.041,5.447,10.986z M3.362,12.479C3.096,12.827,2.844,13.21,2.771,14c-0.136,1.474,0.904,2.603,1.859,2.93
	c1.776,0.609,3.682-0.711,3.718-2.619c0.034-1.776-1.428-3.1-3.211-2.873C4.334,11.539,3.74,11.986,3.362,12.479z"/>
<path fill-rule="evenodd" clip-rule="evenodd" fill="#333333" d="M5.137,11.438c1.783-0.227,3.245,1.097,3.211,2.873
	c-0.037,1.908-1.942,3.229-3.718,2.619C3.675,16.603,2.635,15.474,2.771,14c0.073-0.79,0.325-1.173,0.591-1.521
	C3.74,11.986,4.334,11.539,5.137,11.438z M4.545,13.859c-0.241,0.883,0.508,1.599,1.296,1.465c0.336-0.058,0.745-0.403,0.845-0.816
	c0.207-0.855-0.472-1.465-1.267-1.353C4.926,13.225,4.634,13.537,4.545,13.859z"/>
<path fill-rule="evenodd" clip-rule="evenodd" fill="#FFFFFF" d="M5.419,13.155c0.795-0.112,1.474,0.497,1.267,1.353
	c-0.1,0.413-0.508,0.759-0.845,0.816c-0.788,0.134-1.537-0.582-1.296-1.465C4.634,13.537,4.926,13.225,5.419,13.155z"/>
</svg>
