<?xml version="1.0" encoding="utf-8"?>
<!-- Generator: Adobe Illustrator 15.1.0, SVG Export Plug-In  -->
<!DOCTYPE svg PUBLIC "-//W3C//DTD SVG 1.1//EN" "http://www.w3.org/Graphics/SVG/1.1/DTD/svg11.dtd" [
	<!ENTITY ns_flows "http://ns.adobe.com/Flows/1.0/">
]>
<svg version="1.1"
	 xmlns="http://www.w3.org/2000/svg" xmlns:xlink="http://www.w3.org/1999/xlink" xmlns:a="http://ns.adobe.com/AdobeSVGViewerExtensions/3.0/"
	 x="0px" y="0px" width="20px" height="20px" viewBox="0 -3.113 20 20" enable-background="new 0 -3.113 20 20"
	 xml:space="preserve">
<defs>
</defs>
<path fill-rule="evenodd" clip-rule="evenodd" fill="#575756" d="M4.499,1.571C3.645,2.093,1.664,1.973,2.504,3.72
	C1.275,3.462,1.861,1.534,1.353,0.727c-0.741-0.1-0.618,0.666-0.461,1.074c-1.421,0.2-1.092-2.117,0.614-1.765
	C2.427,0.227,3.529,1.823,4.499,1.571"/>
<path fill-rule="evenodd" clip-rule="evenodd" fill="#575756" d="M15.167,3.182c0.629-0.225,0.869-0.639,1.534-0.69
	c3.237-0.247,3.278,4.472,0.537,4.758c-1.219,0.126-2.54-0.55-2.762-1.996c-1.545,1.318-4.231,0.356-3.837-2.148
	c0.175-1.111,0.993-1.566,2.072-1.918C14.027,1.353,15.018,1.847,15.167,3.182 M13.401,1.801c-1.007-0.04-1.584,0.196-1.919,0.691
	c-1.207,1.785,1.382,3.855,2.533,1.918c-0.341,0.048-1.309,0.881-1.688,0.077c0.899-0.038,1.596-0.634,1.228-1.689
	c-0.229-0.256-0.759-0.213-0.998-0.46c0.776-0.561,1.466,0.314,1.918,0.768C14.775,2.567,13.84,2.096,13.401,1.801 M16.854,2.952
	c-2.095,0.131-2.763,3.927,0.46,3.607C19.25,6.046,18.888,2.825,16.854,2.952"/>
<path fill-rule="evenodd" clip-rule="evenodd" fill="#575756" d="M20,12.238c-0.054,0.458-0.502,0.521-0.614,0.92
	c-2.037,0.696-3.687,2.534-5.985,1.382c-0.717-0.359-1.242-1.214-1.996-1.458c-1.073-0.348-1.935-0.088-2.839-0.613
	C7.311,11.74,6.79,10.244,5.727,9.245c-0.42-0.396-0.983-0.555-1.381-0.921C3.053,7.136,2.514,5.057,2.734,2.415
	c0.161-0.041,0.19-0.166,0.384-0.154c1.306,0.089,3.117,1.201,4.221,2.149C7.818,4.821,8.098,5.45,8.566,5.792
	c0.703,0.512,1.729,0.698,2.532,1.228c0.674,0.444,1.337,1.389,1.996,1.688c0.67,0.305,1.521,0.206,2.148,0.46
	C17.061,9.907,17.849,11.81,20,12.238 M14.091,9.551c-0.438-0.09-0.879,0.049-1.304-0.152c-0.514-0.245-0.894-1.13-1.382-1.536
	C10.592,7.188,9.438,6.882,8.49,6.329C7.397,5.693,6.805,4.47,5.65,3.873c-0.728-0.376-1.639-0.58-2.302-0.92
	C3.344,3.05,3.25,3.058,3.271,3.182c0.21,1.739,0.44,3.492,1.611,4.451C5.361,8.025,5.962,8.154,6.34,8.478
	c0.57,0.487,0.843,1.295,1.304,1.842c0.53,0.625,1.261,1.144,2.073,1.381c0.512,0.15,1.26,0.054,1.996,0.384
	c0.971,0.436,1.66,1.634,2.993,1.765c1.458,0.143,2.625-0.54,3.76-1.381C16.983,11.444,15.965,9.943,14.091,9.551"/>
<path fill-rule="evenodd" clip-rule="evenodd" fill="#575756" d="M16.777,3.413c2.558-0.5,1.171,4.276-0.691,2.456
	C17.587,6.023,18.153,3.785,16.777,3.413"/>
<path fill-rule="evenodd" clip-rule="evenodd" fill="#575756" d="M3.655,3.873c1.11,1.306,1.52,3.681,4.066,3.3
	C5.907,9.072,3.555,6.167,3.655,3.873"/>
<path fill-rule="evenodd" clip-rule="evenodd" fill="#575756" d="M6.801,8.324c1.65-0.028,2.036,1.938,3.454,2.148
	c0.747,0.11,1.244-0.414,1.918,0C10.032,12.294,7.643,10.024,6.801,8.324"/>
<path fill-rule="evenodd" clip-rule="evenodd" fill="#575756" d="M3.578,9.628c0.864-0.122,1.454,0.093,1.765,0.307
	c1.914,1.318,0.583,4.538-1.688,4.144C1.401,13.689,0.863,10.012,3.578,9.628 M3.731,13.619c2.502,0.347,2.351-4.11-0.306-3.377
	C1.753,10.704,2.222,13.41,3.731,13.619"/>
<path fill-rule="evenodd" clip-rule="evenodd" fill="#575756" d="M3.731,10.473c2.117-0.19,1.784,3.209-0.077,2.763
	C4.729,12.876,4.875,10.866,3.731,10.473"/>
<path fill-rule="evenodd" clip-rule="evenodd" fill="#575756" d="M17.544,12.468c-0.757,0.508-1.559,0.932-2.455,0.844
	c-1.301-0.128-2.06-1.214-3.146-1.535c1.595-0.683,2.712,0.909,4.298,0.844C16.619,12.606,17.09,12.375,17.544,12.468"/>
</svg>
